<?xml version="1.0" encoding="UTF-8"?>
<!DOCTYPE svg PUBLIC "-//W3C//DTD SVG 1.1//EN" "http://www.w3.org/Graphics/SVG/1.1/DTD/svg11.dtd">
<!-- Creator: CorelDRAW 2020 (64-Bit) -->
<svg xmlns="http://www.w3.org/2000/svg" xml:space="preserve" width="25.8592mm" height="25.8591mm" version="1.1" style="shape-rendering:geometricPrecision; text-rendering:geometricPrecision; image-rendering:optimizeQuality; fill-rule:evenodd; clip-rule:evenodd"
viewBox="0 0 87.24 87.24"
 xmlns:xlink="http://www.w3.org/1999/xlink"
 xmlns:xodm="http://www.corel.com/coreldraw/odm/2003">
 <defs>
  <style type="text/css">
   <![CDATA[
    .str0 {stroke:stroke-width:2.88;stroke-miterlimit:22.9256}
    .fil1 {fill:#5A310A}
    .fil0 {fill:none}
   ]]>
  </style>
 </defs>
 <g id="Слой_x0020_1">
  <metadata id="CorelCorpID_0Corel-Layer"/>
  <path class="fil0 str0" d="M43.62 85.8c23.3,0 42.18,-18.89 42.18,-42.18 0,-23.3 -18.89,-42.18 -42.18,-42.18 -23.3,0 -42.18,18.89 -42.18,42.18 0,23.3 18.89,42.18 42.18,42.18z"/>
  <g id="_2159797615440">
   <path class="fil1" d="M55.96 38.98c-1.87,0.43 -6.76,4.2 -8.29,5.66 -1.05,1.01 -2.95,3.53 -3.65,4.72 -3.01,5.06 -4.57,12.12 -4.57,18.22l8.37 0c0.49,-5.85 1.11,-10.16 3.74,-14.28 0.68,-1.06 1.01,-1.36 1.75,-2.2 0.24,-0.27 0.2,-0.33 0.47,-0.58 0.23,-0.21 0.32,-0.22 0.58,-0.47 1.02,-0.99 2.17,-1.78 3.41,-2.52 0.49,-0.29 0.89,-0.47 1.33,-0.76l1.3 3.24c0.13,0.32 0.36,0.81 0.45,1.18 0.29,-0.33 1.27,-2.55 1.41,-2.89 0.49,-1.2 3.99,-8.3 4.17,-9.09 -0.95,-0.22 -2.17,-0.8 -3.04,-1.15l-9.17 -3.62c0.04,0.43 1.48,3.99 1.74,4.54z"/>
   <path class="fil1" d="M20.72 38.98c0.12,0.25 0.17,0.45 0.31,0.74 0.13,0.28 0.22,0.42 0.35,0.7 0.26,0.56 0.45,0.97 0.7,1.51 0.14,0.29 0.17,0.44 0.31,0.74l3.12 6.77c0.11,0.26 0.21,0.46 0.33,0.71 0.14,0.28 0.22,0.55 0.35,0.82 0.37,-0.27 1.75,-3.83 1.86,-4.3 1.45,0.77 3.09,1.79 4.33,2.88l1.01 0.97c2.03,2.12 2.55,3.18 3.73,5.69 0.03,0.07 0.08,0.17 0.11,0.24l0.12 0.22c0.61,-2.61 2,-6.28 3.42,-8.67 0.24,-0.4 0.44,-0.71 0.65,-1.1 -0.62,-1.17 -3.37,-3.73 -4.5,-4.57 -1.17,-0.87 -2.73,-2 -4.06,-2.68 -0.53,-0.27 -0.99,-0.64 -1.55,-0.78 0.46,-0.87 1.32,-3.4 1.86,-4.42 -0.48,0.04 -2.54,0.85 -3.12,1.06l-7.71 2.87c-0.56,0.21 -1.11,0.36 -1.61,0.6z"/>
   <path class="fil1" d="M34.68 29.33l4.77 0 0 10.35c0,0.28 0.55,0.66 1.02,1.07l2.15 2.03c0.42,0.43 0.5,0.73 1.02,1.08l2.59 -2.64c0.32,-0.27 1.59,-1.17 1.59,-1.55l0 -10.23 4.77 0c-0.16,-0.58 -2.11,-2.47 -2.66,-3.16l-6.06 -6.73c-0.46,0.31 -0.79,0.73 -1.15,1.18l-5.16 5.42c-0.25,0.29 -0.29,0.41 -0.58,0.7l-1.69 1.8c-0.25,0.28 -0.4,0.36 -0.61,0.67z"/>
  </g>
 </g>
</svg>
