<?xml version="1.0" encoding="UTF-8"?>
<!DOCTYPE svg PUBLIC "-//W3C//DTD SVG 1.1//EN" "http://www.w3.org/Graphics/SVG/1.1/DTD/svg11.dtd">
<!-- Creator: CorelDRAW 2020 (64-Bit) -->
<svg xmlns="http://www.w3.org/2000/svg" xml:space="preserve" width="25.8592mm" height="25.8591mm" version="1.1" style="shape-rendering:geometricPrecision; text-rendering:geometricPrecision; image-rendering:optimizeQuality; fill-rule:evenodd; clip-rule:evenodd"
viewBox="0 0 48.62 48.62"
 xmlns:xlink="http://www.w3.org/1999/xlink"
 xmlns:xodm="http://www.corel.com/coreldraw/odm/2003">
 <defs>
  <style type="text/css">
   <![CDATA[
    .str0 {stroke:#5A310A;stroke-width:1.6;stroke-miterlimit:22.9256}
    .fil1 {fill:#5A310A}
    .fil0 {fill:#F5D3A0}
   ]]>
  </style>
 </defs>
 <g id="Слой_x0020_1">
  <metadata id="CorelCorpID_0Corel-Layer"/>
  <path class="fil0 str0" d="M24.31 47.82c12.98,0 23.51,-10.53 23.51,-23.51 0,-12.98 -10.53,-23.51 -23.51,-23.51 -12.98,0 -23.51,10.53 -23.51,23.51 0,12.98 10.53,23.51 23.51,23.51z"/>
  <g id="_2159798226752">
   <path class="fil1" d="M31.2 38.35c-1.29,0 -2.49,-0.59 -3.31,-1.08 -0.73,-0.44 -1.27,-0.86 -1.94,-1.38 -0.29,-0.23 -0.29,-0.33 -0.64,-0.51 0.25,-0.38 1.89,-2.04 2.61,-3.06 0.33,-0.47 0.44,-0.33 1.19,-0.43 1.12,-0.15 2.35,-0.36 3.43,-0.63 0.39,-0.1 0.96,-0.31 1.35,-0.34 0,0.72 0.14,1.53 0.14,2.57 0,1.39 -0.45,3.48 -1.44,4.31 -0.28,0.24 -0.92,0.56 -1.4,0.56zm-8.85 -6.22l2.23 0.07c0.66,0 1.04,-0.07 1.69,-0.07 -0.3,0.45 -1.63,1.94 -1.96,2.16 -0.36,-0.24 -1.15,-1.16 -1.48,-1.56 -0.17,-0.21 -0.33,-0.37 -0.48,-0.6zm-3.04 -1.62l0 0zm0 0c-0.66,0 -2.51,-0.41 -3.24,-0.61 -0.28,-0.08 -0.73,-0.25 -1.01,-0.27l0.58 -2.19c0.13,-0.39 0.23,-0.73 0.35,-1.07l0.35 -1.07 0.18 0.29c0.08,0.15 0.1,0.21 0.18,0.36 0.13,0.25 0.21,0.42 0.34,0.68l1.11 1.94c0.14,0.24 0.24,0.4 0.38,0.63 0.2,0.34 0.71,0.99 0.79,1.31zm9.93 0.07c0.06,-0.24 0.24,-0.43 0.38,-0.64 0.87,-1.31 1.65,-2.68 2.35,-4.07l0.27 -0.54c0.08,-0.14 0.03,-0.07 0.11,-0.16 0.09,0.39 0.24,0.67 0.36,1.06 0.25,0.75 0.86,2.61 0.92,3.34l-4.39 1.01zm-15.27 -11.76c0.13,0.27 0.3,1.05 0.39,1.37 0.47,1.68 0.89,2.42 1.42,3.86 0.13,0.34 -0.11,0.63 -0.36,1.23 -0.33,0.78 -1.25,3.3 -1.31,4.03 -1.16,-0.27 -2.66,-1.18 -3.65,-1.82 -1.04,-0.68 -2.17,-1.99 -2.13,-3.29 0.03,-0.88 0.35,-1.41 0.73,-1.95 0.33,-0.46 0.91,-1.07 1.36,-1.41 0.61,-0.46 2.75,-1.81 3.54,-2zm13.38 11.96c-0.99,0 -2.04,0.13 -3.04,0.14 -0.98,0 -2.06,-0.14 -3.04,-0.14 -1.91,-2.85 -1.57,-2.36 -3.22,-5.29 -0.12,-0.21 -0.13,-0.19 -0.24,-0.44 -0.07,-0.18 -0.14,-0.31 -0.24,-0.51 -0.65,-1.29 -0.56,-0.81 0.72,-3.29l1.31 -2.13c0.22,-0.33 1.25,-1.87 1.45,-2 0.28,-0.18 2.79,-0.26 3.19,-0.26 0.62,0 0.98,0.07 1.62,0.07 0.47,-0 1.6,-0.01 1.89,0.28 0.04,0.04 0.13,0.16 0.18,0.23l1.11 1.53c0.39,0.59 2.5,4.01 2.5,4.46 0,0.52 -2.42,4.72 -3.01,5.64l-1.18 1.73zm1.42 -13.58c0.36,0.08 0.75,0.15 1.13,0.22 1.5,0.29 2.19,0.58 3.4,0.86 -0.02,0.8 -1.27,3.99 -1.28,4.19l-0.14 0c-0.05,-0.22 -0.2,-0.5 -0.32,-0.7 -0.81,-1.45 -1.62,-2.88 -2.59,-4.23 -0.02,-0.03 -0.1,-0.14 -0.11,-0.16l-0.09 -0.18zm-12.03 5.27c-0.2,-0.15 -0.31,-0.56 -0.44,-0.91l-0.7 -2.13c-0.08,-0.3 -0.24,-0.84 -0.27,-1.15l4.53 -1.08c-0.06,0.23 -0.04,0.12 -0.17,0.3 -0.64,0.9 -1.74,2.65 -2.24,3.57 -0.14,0.26 -0.23,0.43 -0.36,0.66 -0.11,0.19 -0.29,0.51 -0.34,0.74zm5 -6.15l0 0zm0 0c0.06,-0.22 0.09,-0.2 0.25,-0.36l2.31 -2.35c0.42,0.22 1.07,0.96 1.43,1.34l1.34 1.43c-2.63,-0.22 -2.97,-0.07 -5.34,-0.07zm3.38 -3.45l1.02 -0.73c0.13,-0.1 0.21,-0.16 0.35,-0.25l1.14 -0.68c0.17,-0.09 0.22,-0.14 0.38,-0.23 1.05,-0.55 2.61,-1.07 3.79,-0.74 1.75,0.49 1.84,2.77 2.01,3.94 0.1,0.72 -0.27,2.63 -0.32,3.29 -0.59,-0.28 -3.13,-0.74 -4.01,-0.86 -1.84,-0.25 -0.97,0.13 -2.09,-1.15 -0.27,-0.31 -0.47,-0.57 -0.74,-0.88l-0.75 -0.87c-0.26,-0.31 -0.57,-0.51 -0.79,-0.83zm-8.51 -4.05c0.19,0.29 0.41,0.39 0.61,0.75 0.24,0.43 0.11,0.55 0.75,0.6 1.73,0.13 3.38,1.15 4.73,2.1 0.28,0.2 0.52,0.41 0.81,0.61l-2.99 3.49c-0.25,0.21 -0.98,0.19 -1.38,0.24 -1.08,0.14 -3.15,0.45 -4.01,0.86 -0.01,-0.62 -0.24,-1.25 -0.27,-1.89l-0.07 -1.02c-0.01,-0.34 0.07,-0.58 0.07,-1.01 -0.22,-0.05 -0.49,-0.09 -0.71,-0.16 -0.28,-0.1 -0.32,-0.21 -0.64,-0.24 0,1.26 -0.2,1.55 0.05,3.2 0.08,0.51 0.21,0.99 0.22,1.53 -0.18,0.09 -0.39,0.14 -0.6,0.21l-1.68 0.76c-2.59,1.3 -5.27,3.59 -4.22,6.74 0.75,2.25 3.22,3.62 5.28,4.52 0.18,0.08 0.36,0.16 0.57,0.24 0.24,0.09 0.45,0.14 0.65,0.23 -0,0.23 -0.09,0.58 -0.12,0.76 -0.42,2.51 -0.48,5.97 1.59,7.63 0.31,0.25 1.08,0.62 1.57,0.66 -0.01,-0.26 -0.09,-0.44 -0.11,-0.7 -0.02,-0.22 0.06,-0.51 0.11,-0.72 -0.66,-0.35 -1.01,-0.46 -1.38,-1.19 -1.09,-2.17 -0.77,-3.87 -0.58,-6.11 0.25,0.12 0.9,0.26 1.22,0.34 1.08,0.27 2.27,0.49 3.37,0.62 1.47,0.18 0.85,0.06 2.26,1.72 0.3,0.35 1.31,1.38 1.53,1.71 -0.23,0.35 -2.14,1.85 -2.57,1.96 0.14,0.26 0.23,0.31 0.36,0.58 0.13,0.26 0.14,0.49 0.24,0.7 1.53,-0.81 2.03,-1.55 3.04,-2.23l0.66 0.56c0.2,0.19 0.44,0.37 0.67,0.54 0.45,0.33 0.97,0.72 1.44,0.99 1.74,1 4.07,1.92 6.02,0.75 2.07,-1.24 2.33,-4.65 2,-7.01 -0.08,-0.53 -0.23,-1.03 -0.24,-1.58 0.19,-0.09 0.49,-0.18 0.69,-0.26 0.24,-0.09 0.46,-0.17 0.67,-0.28 -0.36,-0.54 -0.26,-0.17 -0.74,-1.08 -0.23,0.05 -0.75,0.24 -0.95,0.34 -0.03,-0.35 -0.25,-1.05 -0.36,-1.39l-0.69 -1.95c-0.1,-0.25 -0.14,-0.4 -0.24,-0.64 -0.14,-0.34 -0.51,-0.87 -0.41,-1.24 0.09,-0.31 1.05,-2.45 1.43,-3.84 0.1,-0.35 0.27,-1.14 0.41,-1.42 0.86,0.2 2.71,1.38 3.47,1.94 0.98,0.73 2.03,1.9 2.16,3.25 0.11,1.17 -0.46,1.67 -1.03,2.51 0.1,0.37 0.47,0.64 0.61,1.22 0.8,-0.54 1.54,-1.95 1.68,-2.92 0.49,-3.46 -3.12,-5.55 -5.84,-6.64 -0.28,-0.11 -0.6,-0.19 -0.84,-0.31 0.02,-0.74 0.34,-1.65 0.34,-3.58 0,-1.44 -0.33,-2.89 -0.89,-3.77 -0.93,-1.44 -1.93,-1.77 -3.64,-1.77 -1.86,0 -4.32,1.63 -5.69,2.82 -0.19,0.16 -0.48,0.43 -0.66,0.56 -0.45,-0.3 -0.9,-0.76 -1.34,-1.09 -1.29,-0.97 -3.24,-2.29 -5.01,-2.29l-1.35 0.07z"/>
   <path class="fil1" d="M22.89 26.39l0 0zm0 0c-0.71,-0.37 -1.22,-1.28 -1.22,-2.36 0.19,-0.09 0.13,0.12 0.41,-0.2 0.33,-0.38 0.62,-0.16 0.42,0.21 -0.06,0.11 -0.14,0.2 -0.21,0.28 -0.34,0.45 -0.05,0.96 0.23,1.43 0.14,0.24 0.3,0.39 0.36,0.65zm2.7 -2.43c0.58,0 1.12,-0.66 0.84,0.91 -0.2,1.14 -0.06,1.29 -1.13,1.77 -0.34,0.15 -0.79,0.22 -1.26,0.22l0 -0.68c0,-0.58 0.61,-0.82 0.61,-1.55 0,-1.38 -0.53,-0.95 -1.35,-0.95 -0.4,0 -0.35,-0.74 0.04,-0.64 0.36,0.09 -0.05,0.2 0.43,0.24 0.15,-0.3 0,-0.57 0.11,-0.9 0.11,-0.33 0.22,-0.31 0.22,-0.79 0.78,0 1.18,0.21 1.69,0.47 -0.24,0.46 -0.61,1.89 -0.2,1.89zm-1.35 -3.72c-0.5,0.1 -0.74,-0.1 -1.67,0.36 -2.77,1.38 -2.9,4.79 -1.05,6.55 1.14,1.09 3.04,1.44 4.52,0.7 2.77,-1.38 2.9,-4.79 1.05,-6.55 -0.51,-0.48 -1.29,-0.9 -2.01,-1.03l-0.81 -0.05c-0.01,0 -0.02,0.01 -0.04,0.01z"/>
   <path class="fil1" d="M17.62 38.83c0,1.37 1.51,1.75 2.25,1.1 0.89,-0.78 0.47,-2.43 -0.9,-2.42 -0.7,0 -1.35,0.56 -1.35,1.32z"/>
   <path class="fil1" d="M13.63 10.85c0,1.84 2.7,2 2.7,-0.07 0,-1.57 -2.7,-1.68 -2.7,0.07z"/>
   <path class="fil1" d="M36.27 28.15c0,1.92 2.7,1.88 2.7,0 0,-1.7 -2.7,-1.7 -2.7,0z"/>
  </g>
 </g>
</svg>
