<?xml version="1.0" encoding="UTF-8"?>
<!DOCTYPE svg PUBLIC "-//W3C//DTD SVG 1.1//EN" "http://www.w3.org/Graphics/SVG/1.1/DTD/svg11.dtd">
<!-- Creator: CorelDRAW 2020 (64-Bit) -->
<svg xmlns="http://www.w3.org/2000/svg" xml:space="preserve" width="25.8026mm" height="25.8025mm" version="1.1" style="shape-rendering:geometricPrecision; text-rendering:geometricPrecision; image-rendering:optimizeQuality; fill-rule:evenodd; clip-rule:evenodd"
viewBox="0 0 186.75 186.75"
 xmlns:xlink="http://www.w3.org/1999/xlink"
 xmlns:xodm="http://www.corel.com/coreldraw/odm/2003">
 <defs>
  <style type="text/css">
   <![CDATA[
    .str0 {stroke:stroke-width:6.16;stroke-miterlimit:22.9256}
    .fil2 {fill:none}
    .fil1 {fill:#5A310A}
    .fil0 {fill:none}
   ]]>
  </style>
 </defs>
 <g id="Слой_x0020_1">
  <metadata id="CorelCorpID_0Corel-Layer"/>
  <path class="fil0" d="M93.38 183.67c49.87,0 90.3,-40.43 90.3,-90.3 0,-49.87 -40.43,-90.3 -90.3,-90.3 -49.87,0 -90.3,40.43 -90.3,90.3 0,49.87 40.43,90.3 90.3,90.3z"/>
  <path class="fil1" d="M87.29 139.38l0.23 0c0.39,1.67 3.42,5.43 4.71,6.61l2.08 1.77 -12.8 0c0.24,-0.37 1.38,-1.13 2.54,-2.67l1.46 -2.05c0.53,-0.91 1.56,-2.73 1.78,-3.66zm-1.7 -27.52l0 12.12c-0.88,0 -4.59,-0.73 -5.86,-0.94l-6.34 -1.81c-1.41,-0.66 -3.18,-1.74 -3.51,-3.4 -0.33,-1.63 0.71,-2.73 1.78,-3.37 1.09,-0.65 2.78,-1.34 4.09,-1.46 0.84,-0.08 1.41,-0.3 2.38,-0.34 0.78,-0.03 1.71,-0.16 2.49,-0.23 0.79,-0.07 1.6,-0.15 2.46,-0.25 0.7,-0.09 1.75,-0.31 2.52,-0.31zm-25.59 -46.43l7.02 0c0,0.56 0.11,0.97 0.21,1.38 0.26,1.1 0.26,1.32 0.66,2.51 0.03,0.09 0.06,0.16 0.1,0.24 0.11,0.26 0.05,0.08 0.14,0.32 0.75,1.96 1.45,3.09 2.49,4.76 0.21,0.34 0.41,0.6 0.65,0.93 1.2,1.66 2.38,2.98 3.56,4.48 0.25,0.31 0.44,0.57 0.72,0.86 0.22,0.23 0.6,0.69 0.76,0.93 -0.37,-0.03 -1.17,-0.37 -1.51,-0.53 -2.41,-1.09 -5.07,-2.24 -7.12,-4.09l-1.59 -1.47c-0.25,-0.24 -0.26,-0.27 -0.47,-0.55 -0.2,-0.26 -0.29,-0.31 -0.49,-0.53 -0.31,-0.33 -0.62,-0.76 -0.9,-1.14 -1.18,-1.58 -2.61,-3.95 -3.36,-5.81l-0.6 -1.44c-0.15,-0.34 -0.15,-0.62 -0.26,-0.87zm-4.98 -16.19c0,2.17 0.3,5.25 2.15,6.68 1.33,1.03 2.85,1.65 4.42,2.15 4.62,1.48 10.12,1.37 14.93,0.77l8.4 -0.43c2.45,0.02 5.21,-0.73 7.58,-1.25 0.58,-0.13 1.05,-0.38 1.59,-0.56 0.53,-0.18 1.31,-0.23 2.04,-0.22l8.49 -0.68 -8.32 -1.76c-0.64,-0.12 -1.08,-0.21 -1.48,-0.56l-1.62 -1.44c-1.8,-1.59 -4.42,-2.99 -6.87,-3.33 -3.91,-0.53 -6.95,0.97 -10.18,2.98 -0.56,0.35 -0.6,0.26 -1.44,0.26l-5.1 -0.01c-1.75,0 -2.74,0.4 -4.45,-0.42 -1.4,-0.67 -1.79,-1.97 -0.94,-3.27 0.26,-0.39 0.54,-0.62 0.89,-0.92 0.89,-0.74 1.99,-1.13 3.07,-1.46l2.14 -0.58c1.81,-0.61 3.68,-1.43 5.61,-1.75 0.54,-0.09 0.96,-0.2 1.47,-0.34 1.09,-0.3 3.56,-0.53 4.78,-0.65 3.47,-0.33 7.27,-0.34 10.74,0l5.31 0.58c1.98,0.28 6.29,1.23 8.21,1.76l1.51 0.41c1.48,0.55 3.07,0.89 4.49,1.51l3.38 1.6c0.23,0.12 0.44,0.24 0.66,0.36 0.42,0.22 0.86,0.48 1.29,0.74 0.46,0.28 0.77,0.46 1.18,0.74 0.24,0.16 0.37,0.22 0.61,0.4 0.94,0.69 2,1.32 2.83,2.16 1.25,1.27 1.55,1.32 2.95,3.05 0.92,1.13 1.72,2.34 2.31,3.69 0.68,1.53 1.11,2.91 1.46,4.55 0.3,1.43 0.26,4.14 0,5.57 -0.06,0.36 -0.14,0.53 -0.21,0.92 -0.19,1 -0.37,1.92 -0.73,2.89 -0.12,0.34 -0.15,0.58 -0.26,0.87 -1.4,3.57 -3.3,6.85 -5.6,9.92l-3.72 4.54c-0.22,0.25 -0.37,0.39 -0.6,0.64l-0.54 0.59c-0.02,0.02 -0.04,0.04 -0.05,0.06l-4.99 4.41 -4.16 2.98c-2.32,1.64 -6.03,3.43 -8.84,4.3 -0.52,0.16 -1.16,0.4 -1.78,0.6 -1.82,0.59 -3.86,1.11 -5.75,1.38 -0.39,0.06 -0.75,0.06 -1.02,0.11 -0.46,0.08 -0.63,0.15 -1.1,0.15l0 -9.97c0.8,0 2.79,-0.4 3.6,-0.6l4.17 -1.04c1.41,-0.36 3.96,-1.42 5.32,-2.04 2.58,-1.17 5.67,-2.9 7.72,-4.85l2.19 -2c1.38,-1.43 2.69,-2.91 3.8,-4.59 0.29,-0.44 0.58,-0.82 0.83,-1.21l3.62 -6.91c0.94,-2.02 1.83,-4.79 2.49,-6.91 0.25,-0.8 0.62,-1.73 0.69,-2.59l-72.82 0 0.89 3.19c0.97,3.07 2.13,6.19 3.53,9.04l2.22 4.01c1.18,1.93 2.59,3.63 4.05,5.35l2.72 2.6c3.68,2.87 5.42,3.92 9.84,5.79 1.77,0.75 2.88,0.91 4,1.33l2.43 0.63c0.5,0.07 0.57,0.12 0.93,0.2 1,0.24 2.58,0.6 3.6,0.6l0 10.53 -5.99 0.47c-2.21,0.22 -6.08,0.9 -8.22,1.74l-1.52 0.63c-1.43,0.65 -3.84,1.81 -4.74,3.07l-1.16 2.12c-1.84,3.77 -1.49,7.43 1.73,10.16 1.61,1.37 4.19,2.62 6.4,3.23l1.65 0.5c0.35,0.1 0.52,0.18 0.86,0.27l10.99 2.04c0,3.32 0.23,6.24 -1.03,9.38 -1.05,2.6 -2.58,4.8 -4.54,6.78 -0.38,0.39 -0.65,0.55 -1.02,0.91 -0.94,0.9 -2.08,1.69 -3.22,2.33 -0.21,0.12 -0.4,0.22 -0.59,0.32l-1.99 0.96c-0.26,0.11 -0.43,0.16 -0.65,0.26l-0.77 0.25c0.33,0.45 0.23,0.11 0.91,0.11l30.24 0c0.68,0 0.57,0.34 0.91,-0.11l-3.7 -1.62c-4.29,-2.36 -8.03,-6.18 -9.61,-10.89 -0.89,-2.66 -0.73,-5.18 -0.73,-7.99 1.16,0.1 2.45,0.4 3.53,0.55 1.19,0.16 2.34,0.46 3.45,0.74l2.46 0.6c0.35,0.1 0.53,0.18 0.86,0.27l2.29 0.77c7.98,2.55 13.14,8.44 5.5,16.08l-5.87 4.66c-0.36,0.23 -0.19,0 -0.44,0.35 0.73,-0.06 2.27,-0.89 2.99,-1.2l1.36 -0.68c1.85,-1.09 4.12,-2.34 5.5,-4.02 0.81,-0.98 1.64,-1.91 2.29,-3.03 0.24,-0.41 0.48,-1.05 0.66,-1.5 0.87,-2.19 0.79,-4.88 -0.1,-7.04 -0.57,-1.38 -1.48,-2.77 -2.59,-3.75 -1.91,-1.7 -5.99,-3.53 -8.26,-4.42 -1.48,-0.58 -3.33,-1.2 -4.89,-1.45 -1.14,-0.19 -2.28,-0.62 -3.42,-0.77 -0.71,-0.09 -1.15,-0.24 -1.81,-0.35l-2.73 -0.44c-0.41,-0.03 -0.78,0.09 -0.78,-0.35l0 -13.25c1.36,-0.03 8.63,-1.83 9.47,-2.08 5.86,-1.76 10.83,-3.53 16.14,-6.96 1.21,-0.78 2.31,-1.47 3.41,-2.36l1.59 -1.25c0.59,-0.47 1.02,-0.87 1.6,-1.35 1.04,-0.87 2,-1.87 2.93,-2.85l2.1 -2.21c1.98,-2.13 4.07,-4.96 5.67,-7.36 0.79,-1.18 1.45,-2.33 2.12,-3.66 0.64,-1.3 1.33,-2.65 1.73,-4.04l1 -3.3c0.88,-2.67 1.16,-8.68 0.5,-11.4 -0.41,-1.67 -0.72,-3.24 -1.36,-4.87 -1.5,-3.79 -2.95,-5.73 -5.53,-8.96 -0.83,-1.03 -3.06,-3.19 -4.29,-4.09 -0.22,-0.16 -0.37,-0.27 -0.57,-0.45l-1.73 -1.33c-0.79,-0.61 -1.6,-1.22 -2.49,-1.7l-7.9 -3.54c-0.3,-0.12 -0.44,-0.14 -0.75,-0.27 -1.52,-0.64 -3.2,-1.05 -4.76,-1.47 -0.31,-0.08 -0.52,-0.18 -0.77,-0.25l-2.57 -0.6c-2.44,-0.66 -6.39,-1.26 -8.95,-1.47 -2.65,-0.22 -5.24,-0.45 -7.94,-0.44 -1.34,0 -2.51,-0.11 -3.96,-0.11 -1.32,-0 -7.07,0.1 -8.13,0.25 -3.21,0.47 -8.34,1.84 -11.23,3.26l-0.68 0.34c-2.5,1.27 -4.68,2.81 -6.55,4.89 -0.49,0.55 -0.97,1.2 -1.3,1.87l-0.35 0.67c-0.82,1.56 -1.21,3.32 -1.21,5.13z"/>
  <path class="fil2 str0" d="M93.38 183.67c49.87,0 90.3,-40.43 90.3,-90.3 0,-49.87 -40.43,-90.3 -90.3,-90.3 -49.87,0 -90.3,40.43 -90.3,90.3 0,49.87 40.43,90.3 90.3,90.3z"/>
 </g>
</svg>
